<svg xmlns="http://www.w3.org/2000/svg" viewBox="0 0 63 63" width="63" height="63">
	<style>
		tspan { white-space:pre }
		.shp0 { fill: #666d89 } 
		.shp1 { fill: none;stroke: #666d89;stroke-width: 2 } 
	</style>
	<path id="bubble" class="shp0" d="M32 23C26.04 23 21 26.21 21 30C21 30.28 21.22 30.5 21.5 30.5C21.78 30.5 22 30.28 22 30C22 26.8 26.67 24 32 24C32.28 24 32.5 23.78 32.5 23.5C32.5 23.22 32.28 23 32 23ZM32 18C23.16 18 16 23.37 16 30C16 34.13 18.78 37.77 23.01 39.93C23.01 39.95 23 39.97 23 40C23 41.79 21.66 43.72 21.07 44.74C21.07 44.74 21.07 44.74 21.07 44.74C21.03 44.85 21 44.97 21 45.09C21 45.59 21.41 46 21.91 46C22 46 22.17 45.97 22.16 45.99C25.29 45.48 28.23 42.6 28.91 41.77C29.91 41.92 30.94 42 32 42C40.84 42 48 36.63 48 30C48 23.37 40.84 18 32 18ZM32 40C31.08 40 30.14 39.93 29.2 39.79C29.11 39.78 29.01 39.77 28.91 39.77C28.32 39.77 27.75 40.04 27.37 40.5C26.94 41.02 25.72 42.19 24.28 43.04C24.67 42.15 24.98 41.14 25 40.11C25 40.05 25.01 39.98 25.01 39.93C25.01 39.17 24.59 38.49 23.92 38.14C20.21 36.25 18 33.21 18 30C18 24.49 24.28 20 32 20C39.72 20 46 24.49 46 30C46 35.51 39.72 40 32 40Z" />
	<path id="Ellipse" class="shp1" d="M31.5 2C47.79 2 61 15.21 61 31.5C61 47.79 47.79 61 31.5 61C15.21 61 2 47.79 2 31.5C2 15.21 15.21 2 31.5 2Z" />
</svg>