<svg xmlns="http://www.w3.org/2000/svg" viewBox="0 0 63 63" width="63" height="63">
	<style>
		tspan { white-space:pre }
		.shp0 { fill: #666d89 } 
		.shp1 { fill: none;stroke: #666d89;stroke-width: 2 } 
	</style>
	<path id="heart" class="shp0" d="M45.19 20.79C41.56 17.2 35.76 17.13 32 20.5C28.24 17.13 22.44 17.2 18.81 20.79C15.07 24.49 15.07 30.49 18.81 34.19C19.88 35.25 29.86 45.12 29.86 45.12C31.04 46.29 32.96 46.29 34.14 45.12C34.14 45.12 45.07 34.31 45.19 34.19C48.93 30.49 48.93 24.49 45.19 20.79ZM43.77 32.78L32.71 43.71C32.32 44.1 31.68 44.1 31.29 43.71L20.24 32.78C17.28 29.86 17.28 25.12 20.24 22.2C23.08 19.39 27.65 19.29 30.64 21.98L32 23.2L33.36 21.98C36.35 19.29 40.92 19.39 43.77 22.2C46.72 25.12 46.72 29.86 43.77 32.78ZM25.25 23.03C25.25 23.03 25.25 23.03 25.25 23.03C22.9 23.03 21 24.93 21 27.27L21 27.27C21 27.55 21.23 27.77 21.5 27.77C21.78 27.77 22 27.55 22 27.27L22 27.27C22 25.48 23.46 24.03 25.25 24.03L25.25 24.03C25.53 24.03 25.75 23.8 25.75 23.53C25.75 23.25 25.53 23.03 25.25 23.03Z" />
	<path id="Ellipse" class="shp1" d="M31.5 2C47.79 2 61 15.21 61 31.5C61 47.79 47.79 61 31.5 61C15.21 61 2 47.79 2 31.5C2 15.21 15.21 2 31.5 2Z" />
</svg>