<svg xmlns="http://www.w3.org/2000/svg" viewBox="0 0 63 63" width="63" height="63">
	<style>
		tspan { white-space:pre }
		.shp0 { fill: #666d89 } 
		.shp1 { fill: none;stroke: #666d89;stroke-width: 2 } 
	</style>
	<path id="phone" class="shp0" d="M40 16L24 16C22.34 16 21 17.34 21 19L21 45C21 46.66 22.34 48 24 48L40 48C41.66 48 43 46.66 43 45L43 19C43 17.34 41.66 16 40 16ZM41 45C41 45.55 40.55 46 40 46L24 46C23.45 46 23 45.55 23 45L23 43L41 43L41 45ZM41 42L23 42L23 22L41 22L41 42ZM41 21L23 21L23 19C23 18.45 23.45 18 24 18L40 18C40.55 18 41 18.45 41 19L41 21ZM34 19.5C34 19.78 33.78 20 33.5 20L30.5 20C30.22 20 30 19.78 30 19.5L30 19.5C30 19.22 30.22 19 30.5 19L33.5 19C33.78 19 34 19.22 34 19.5L34 19.5ZM33 44.5C33 44.77 32.78 45 32.5 45L31.5 45C31.22 45 31 44.77 31 44.5L31 44.5C31 44.22 31.22 44 31.5 44L32.5 44C32.78 44 33 44.22 33 44.5L33 44.5Z" />
	<path id="Ellipse" class="shp1" d="M31.5 2C47.79 2 61 15.21 61 31.5C61 47.79 47.79 61 31.5 61C15.21 61 2 47.79 2 31.5C2 15.21 15.21 2 31.5 2Z" />
</svg>