<svg xmlns="http://www.w3.org/2000/svg" viewBox="0 0 63 63" width="63" height="63">
	<style>
		tspan { white-space:pre }
		.shp0 { fill: #666d89 } 
		.shp1 { fill: none;stroke: #666d89;stroke-width: 2 } 
	</style>
	<path id="star" class="shp0" d="M47.88 27.56C47.6 26.76 46.89 26.17 46.04 26.05L37.71 24.81L34.09 17.29C33.71 16.51 32.9 16 32 16C31.1 16 30.29 16.51 29.91 17.29L26.29 24.81L17.96 26.05C17.11 26.17 16.4 26.76 16.12 27.56C15.84 28.36 16.05 29.24 16.66 29.84L22.76 35.93L21.34 44.39C21.2 45.24 21.57 46.09 22.29 46.59C22.69 46.86 23.16 47 23.62 47C24.01 47 24.39 46.91 24.74 46.72L32 42.81L39.26 46.72C39.61 46.91 39.99 47 40.38 47C40.84 47 41.31 46.86 41.71 46.59C42.43 46.09 42.8 45.24 42.66 44.39L41.24 35.93L47.34 29.84C47.95 29.24 48.16 28.36 47.88 27.56ZM39.59 34.36C39.08 34.87 38.84 35.59 38.96 36.3L40.38 44.75L33.12 40.84C32.77 40.65 32.38 40.56 32 40.56C31.62 40.56 31.23 40.65 30.88 40.84L23.62 44.75L25.04 36.3C25.16 35.59 24.92 34.87 24.41 34.36L18.31 28.27L26.64 27.03C27.4 26.92 28.05 26.44 28.38 25.76L32 18.25L35.62 25.76C35.95 26.44 36.6 26.92 37.36 27.03L45.69 28.27L39.59 34.36Z" />
	<path id="Ellipse" class="shp1" d="M31.5 2C47.79 2 61 15.21 61 31.5C61 47.79 47.79 61 31.5 61C15.21 61 2 47.79 2 31.5C2 15.21 15.21 2 31.5 2Z" />
</svg>